<svg xmlns="http://www.w3.org/2000/svg" width="512" height="512" viewBox="0 0 512 512" fill="none">
  <rect width="512" height="512" rx="96" fill="#0a0a0f"/>
  <g transform="translate(96 96) scale(13.33)">
    <path d="M16 12v2a2 2 0 0 1-2 2H9a1 1 0 0 0-1 1v3a2 2 0 0 0 2 2h10a2 2 0 0 0 2-2V10a2 2 0 0 0-2-2h0" fill="none" stroke="#34d399" stroke-width="2" stroke-linecap="round" stroke-linejoin="round"/>
    <path d="M4 16a2 2 0 0 1-2-2V4a2 2 0 0 1 2-2h10a2 2 0 0 1 2 2v3a1 1 0 0 1-1 1h-5a2 2 0 0 0-2 2v2" fill="none" stroke="#34d399" stroke-width="2" stroke-linecap="round" stroke-linejoin="round"/>
  </g>
</svg>
