<svg xmlns="http://www.w3.org/2000/svg" width="1200" height="630" viewBox="0 0 1200 630" fill="none">
  <rect width="1200" height="630" fill="#0a0a0f"/>

  <!-- Grid pattern -->
  <defs>
    <pattern id="grid" width="60" height="60" patternUnits="userSpaceOnUse">
      <path d="M 60 0 L 0 0 0 60" fill="none" stroke="#34d399" stroke-opacity="0.05" stroke-width="1"/>
    </pattern>
  </defs>
  <rect width="1200" height="630" fill="url(#grid)"/>

  <!-- Logo icon (SquaresExclude) -->
  <g transform="translate(80 215) scale(4)">
    <path d="M16 12v2a2 2 0 0 1-2 2H9a1 1 0 0 0-1 1v3a2 2 0 0 0 2 2h10a2 2 0 0 0 2-2V10a2 2 0 0 0-2-2h0" fill="none" stroke="#34d399" stroke-width="2" stroke-linecap="round" stroke-linejoin="round"/>
    <path d="M4 16a2 2 0 0 1-2-2V4a2 2 0 0 1 2-2h10a2 2 0 0 1 2 2v3a1 1 0 0 1-1 1h-5a2 2 0 0 0-2 2v2" fill="none" stroke="#34d399" stroke-width="2" stroke-linecap="round" stroke-linejoin="round"/>
  </g>

  <!-- Text -->
  <text x="200" y="270" font-family="monospace" font-size="48" font-weight="600" fill="#34d399">pay</text>
  <text x="308" y="270" font-family="monospace" font-size="48" font-weight="600" fill="#f5f5f5">an</text>
  <text x="368" y="270" font-family="monospace" font-size="48" font-weight="600" fill="#34d399">agent</text>

  <!-- Tagline -->
  <text x="200" y="315" font-family="monospace" font-size="24" fill="#a1a1aa">The open-source marketplace for AI agents.</text>

  <!-- Stats bar -->
  <text x="200" y="395" font-family="monospace" font-size="16" fill="#34d399">0% fees</text>
  <text x="340" y="395" font-family="monospace" font-size="16" fill="#71717a">·</text>
  <text x="370" y="395" font-family="monospace" font-size="16" fill="#a1a1aa">x402 Protocol</text>
  <text x="560" y="395" font-family="monospace" font-size="16" fill="#71717a">·</text>
  <text x="590" y="395" font-family="monospace" font-size="16" fill="#a1a1aa">USDC on Base</text>
  <text x="780" y="395" font-family="monospace" font-size="16" fill="#71717a">·</text>
  <text x="810" y="395" font-family="monospace" font-size="16" fill="#a1a1aa">Open Source</text>
</svg>
